PathFileType	4	(X/Y/Z)	C:\Motion Data\9999\Fregly Locomotion Course\Processed\9999bj_kick4.trc
DataRate	CameraRate	NumFrames	NumMarkers	Units	OrigDataRate	OrigDataStartFrame	OrigNumFrames
200.00	200.00	       4	35	mm	200.00	37	       292
Frame#	Time	R_Heel			R_Midfoot_Superior			R_Midfoot_Lateral			R_Toe			L_Heel			L_Midfoot_Superior			L_Midfoot_Lateral			L_Toe			R_Shank_Superior			R_Shank_Inferior			R_Shank_Lateral			R_Shank Posterior			L_Shank_Superior			L_Shank_Inferior			L_Shank_Lateral			L_Shank_Posterior			R_Patella			L_Patella			R_Thigh_Superior			R_Thigh_Inferior			R_Thigh_Lateral			L_Thigh_Superior			L_Thigh_Inferior			L_Thigh_Lateral			R_Asis			L_Asis			Sacral			R_Shoulder			L_Shoulder			Back			R_Elbow			L_Elbow			R_Wrist			L_Wrist			Ball			
		X1	Y1	Z1	X2	Y2	Z2	X3	Y3	Z3	X4	Y4	Z4	X5	Y5	Z5	X6	Y6	Z6	X7	Y7	Z7	X8	Y8	Z8	X9	Y9	Z9	X10	Y10	Z10	X11	Y11	Z11	X12	Y12	Z12	X13	Y13	Z13	X14	Y14	Z14	X15	Y15	Z15	X16	Y16	Z16	X17	Y17	Z17	X18	Y18	Z18	X19	Y19	Z19	X20	Y20	Z20	X21	Y21	Z21	X22	Y22	Z22	X23	Y23	Z23	X24	Y24	Z24	X25	Y25	Z25	X26	Y26	Z26	X27	Y27	Z27	X28	Y28	Z28	X29	Y29	Z29	X30	Y30	Z30	X31	Y31	Z31	X32	Y32	Z32	X33	Y33	Z33	X34	Y34	Z34	X35	Y35	Z35

37	   0.180	 -600.04199000000006	   51.12074000000000	  -99.85957000000001	 -479.72455000000002	   84.19250000000000	   27.34481000000000	 -546.36339999999996	   24.95995000000000	   37.03667000000000	 -402.54178000000002	   43.40364000000000	   90.80731000000000	 -857.48688000000004	  181.52218999999999	 -325.25725999999997	 -681.02050999999994	  122.98641000000001	 -309.67406999999997	 -749.93895999999995	  107.22181999999999	 -381.93930000000000	 -617.06255999999996	   54.13097000000000	 -312.04007000000001	 -409.55142000000001	  336.86876999999998	  118.96638000000000	 -474.08767999999998	  203.61044000000001	   53.56290000000000	 -520.32470999999998	  292.44272000000001	   99.39534999999999	 -503.39956999999998	  382.01247999999998	   34.13755000000000	 -490.97073000000000	  290.60205000000002	 -218.16543999999999	 -621.14702999999997	  217.91962000000001	 -267.30565999999999	 -549.32030999999995	  311.27390000000003	 -315.24898999999999	 -693.03632000000005	  286.52084000000002	 -309.78582999999998	 -349.88116000000002	  449.68599999999998	  163.90817000000001	 -382.38324000000000	  338.93187999999998	 -179.05174000000000	 -413.86874000000000	  675.80664000000002	  142.72093000000001	 -382.32584000000003	  592.83056999999997	  150.05099000000001	 -493.08139000000000	  614.20905000000005	  127.18916000000000	 -306.67962999999997	  615.90039000000002	 -171.63376000000000	 -329.24991000000000	  495.94857999999999	 -166.22676000000001	 -379.06357000000003	  554.76971000000003	 -253.35625999999999	 -456.56801999999999	  875.78583000000003	   48.12539000000000	 -315.25995000000000	  837.04796999999996	 -163.41316000000000	 -512.54974000000004	  951.72333000000003	 -154.97844000000001	 -437.69274999999999	 1278.26917000000003	  144.67894000000001	 -184.10068000000001	 1325.75805999999989	 -128.99751000000001	 -319.60061999999999	 1358.21387000000004	  -32.50238000000000	 -615.51044000000002	 1025.84044999999992	   91.12220000000001	  -94.68059000000000	 1184.32042999999999	 -381.13394000000000	 -550.25585999999998	  804.40917999999999	  225.47035000000000	   94.40880000000000	 1029.12377999999990	 -493.29297000000003	  488.88742000000002	  217.19110000000001	  476.10718000000003
38	   0.185	 -599.86725000000001	   51.18929000000000	  -99.82555000000001	 -479.68306999999999	   83.86964000000000	   26.81025000000000	 -546.51513999999997	   24.87321000000000	   37.08786000000000	 -404.42257999999998	   43.35769000000000	   89.14563000000000	 -848.86541999999997	  192.40044000000000	 -323.07672000000002	 -675.94775000000004	  126.44625000000001	 -306.68889999999999	 -743.52539000000002	  116.00736000000001	 -380.31261999999998	 -614.06537000000003	   53.83094000000000	 -309.18063000000001	 -407.87554999999998	  335.48624000000001	  120.64429000000000	 -473.36568999999997	  202.40450999999999	   53.76211000000000	 -519.12261999999998	  291.35156000000001	   99.71442000000000	 -508.15060000000000	  379.38495000000000	   23.46272000000000	 -476.83492999999999	  290.05901999999998	 -208.99779000000001	 -612.86841000000004	  220.93814000000000	 -262.23196000000002	 -536.32001000000002	  310.32697000000002	 -309.31533999999999	 -682.13860999999997	  291.43371999999999	 -305.64996000000002	 -347.33474999999999	  447.81896999999998	  165.68149000000000	 -371.05327999999997	  336.99335000000002	 -172.96654000000001	 -411.29867999999999	  673.89324999999997	  145.86975000000001	 -379.74295000000001	  590.78881999999999	  152.81894000000000	 -490.32413000000003	  612.51831000000004	  129.54472000000001	 -299.24957000000001	  615.52448000000004	 -167.24198999999999	 -319.48275999999998	  494.56592000000001	 -161.36845000000000	 -370.19637999999998	  552.34717000000001	 -249.34997999999999	 -452.21102999999999	  874.53723000000002	   51.49688000000000	 -312.16086000000001	  835.57934999999998	 -161.75423000000001	 -507.84998000000002	  950.29272000000003	 -151.89008000000001	 -431.30862000000002	 1276.08887000000004	  149.18217000000001	 -180.58125000000001	 1323.58800999999994	 -125.67576000000000	 -314.65591000000001	 1356.02527000000009	  -29.91301000000000	 -608.43939000000000	 1023.33789000000002	   96.83704000000000	  -91.96742000000000	 1184.85863999999992	 -380.56576999999999	 -541.63036999999997	  803.51678000000004	  232.80634000000001	   95.19129000000000	 1031.62584999999990	 -497.80086999999997	  488.93252999999999	  217.06630999999999	  476.15149000000002
39	   0.190	 -599.86725000000001	   51.18929000000000	  -99.82555000000001	 -479.66933999999998	   83.80512000000000	   26.92571000000000	 -546.41327000000001	   24.77588000000000	   37.24224000000000	 -403.92908000000000	   42.99329000000000	   89.05060000000000	 -839.87163999999996	  201.77184000000000	 -320.31054999999998	 -669.77954000000000	  130.31244000000001	 -302.05338000000000	 -735.82476999999994	  124.20889000000000	 -377.52557000000002	 -608.71704000000000	   54.02241000000000	 -306.62594999999999	 -406.32001000000002	  333.54807000000000	  120.72480000000000	 -472.67770000000002	  201.56227000000001	   54.12566000000000	 -517.29778999999996	  290.75607000000002	  100.48573000000000	 -506.09145999999998	  378.72262999999998	   24.16282000000000	 -468.09854000000001	  288.79550000000000	 -206.96441999999999	 -604.04993000000002	  223.70544000000001	 -257.15732000000003	 -525.91821000000004	  311.07828000000001	 -303.57720999999998	 -671.01098999999999	  296.36612000000002	 -302.06133999999997	 -345.03933999999998	  445.79953000000000	  167.24054000000001	 -358.78982999999999	  335.67288000000002	 -167.09112999999999	 -408.36804000000001	  672.03216999999995	  148.76085000000000	 -376.60138000000001	  588.56177000000002	  154.48338000000001	 -487.22473000000002	  611.31244000000004	  130.68625000000000	 -291.67962999999997	  615.13269000000003	 -163.00537000000000	 -309.59231999999997	  494.99608999999998	 -156.66318999999999	 -360.95184000000000	  550.30700999999999	 -244.38907000000000	 -448.13396999999998	  873.34229000000005	   53.24594000000000	 -308.11806999999999	  833.58911000000001	 -159.31303000000000	 -503.50479000000001	  949.53386999999998	 -149.68947000000000	 -424.85455000000002	 1274.09350999999992	  153.49207999999999	 -174.66256999999999	 1322.33385999999996	 -122.82737000000000	 -308.81342000000001	 1355.22631999999999	  -27.18483000000000	 -600.90661999999998	 1020.58118000000002	  103.53462000000000	  -88.79286999999999	 1186.62743999999998	 -379.61345999999998	 -532.23797999999999	  801.55169999999998	  239.34474000000000	   95.86646000000000	 1033.90319999999997	 -502.52722000000000	  489.03933999999998	  216.94635000000000	  476.24417000000000
40	   0.195	 -599.96398999999997	   51.28924000000000	  -99.69768999999999	 -479.75335999999999	   83.76214000000000	   26.85109000000000	 -546.69683999999995	   24.51117000000000	   37.09600000000000	 -402.65775000000002	   42.83668000000000	   90.52499000000000	 -830.90581999999995	  211.61946000000000	 -318.35262999999998	 -661.46118000000001	  135.10016999999999	 -299.46167000000003	 -727.77710000000002	  131.01819000000000	 -374.57211000000001	 -602.16588999999999	   55.61051000000000	 -303.02127000000002	 -404.39679000000001	  332.17403999999999	  121.70316000000000	 -472.02429000000001	  200.86714000000001	   54.21742000000000	 -516.03033000000005	  289.85266000000001	  101.54834000000000	 -503.92446999999999	  378.02145000000002	   25.67457000000000	 -458.11597000000000	  288.80993999999998	 -199.48415000000000	 -594.97046000000000	  226.90174999999999	 -253.25458000000000	 -513.67816000000005	  312.53232000000003	 -298.68545999999998	 -659.57947000000001	  301.15886999999998	 -297.12866000000002	 -342.79935000000000	  443.94866999999999	  168.91931000000000	 -347.08109000000002	  334.23718000000002	 -161.23751999999999	 -405.51895000000002	  670.06726000000003	  150.43481000000000	 -374.05209000000002	  586.71051000000000	  156.60482999999999	 -482.73746000000000	  609.93555000000003	  132.95647000000000	 -284.19747999999998	  614.67505000000006	 -160.27266000000000	 -300.16039999999998	  494.80977999999999	 -152.06688000000000	 -352.73928999999998	  548.44916000000001	 -240.38417000000001	 -444.09566999999998	  871.95032000000003	   55.00119000000000	 -303.63281000000001	  832.70776000000001	 -157.65620000000001	 -498.93862999999999	  948.83612000000005	 -147.65522999999999	 -417.77208999999999	 1272.22228999999993	  156.65669000000000	 -171.28946999999999	 1321.14612000000011	 -120.82677000000000	 -303.73621000000003	 1352.98547000000008	  -23.83964000000000	 -593.97613999999999	 1017.72686999999996	  109.96326999999999	  -86.08963000000000	 1188.38660000000004	 -379.83487000000002	 -522.90790000000004	  799.38373000000001	  244.02850000000001	   95.94335000000000	 1036.33666999999991	 -506.41354000000001	  489.26715000000002	  216.99510000000001	  476.12997000000001
